<svg id="Group_269" data-name="Group 269" xmlns="http://www.w3.org/2000/svg" xmlns:xlink="http://www.w3.org/1999/xlink" width="463.5" height="54.172" viewBox="0 0 463.5 54.172">
  <defs>
    <clipPath id="clip-path">
      <rect id="Rectangle_3" data-name="Rectangle 3" width="463.5" height="54.172" fill="none"/>
    </clipPath>
  </defs>
  <g id="Group_1" data-name="Group 1" clip-path="url(#clip-path)">
    <path id="Path_1" data-name="Path 1" d="M135.027,26.7h-7.438v9.78h7.4c3.616,0,6.2-1.86,6.2-4.993,0-3-2.273-4.787-6.164-4.787m6.439,21.59-6.99-9.365h-6.887v9.365H124.87v-24.1h10.365c5.3,0,8.711,2.858,8.711,7.2,0,4.027-2.754,6.37-6.542,7.058l7.4,9.848Z" transform="translate(0.201 0.039)" fill="#fff"/>
    <path id="Path_2" data-name="Path 2" d="M161.608,27.18,156.1,39.472h10.985ZM173.9,48.287h-2.927l-2.824-6.37H155.031l-2.859,6.37h-2.788l10.985-24.275h2.548Z" transform="translate(0.24 0.038)" fill="#fff"/>
    <path id="Path_3" data-name="Path 3" d="M198.061,24.184h2.651v24.1h-2.168L182.978,28.521V48.286h-2.651v-24.1h2.548L198.061,43.5Z" transform="translate(0.29 0.039)" fill="#fff"/>
    <path id="Path_4" data-name="Path 4" d="M217.575,26.7h-5.647V45.774h5.647c6.095,0,9.985-4.132,9.985-9.5s-3.89-9.572-9.985-9.572m0,21.59h-8.367v-24.1h8.367c7.576,0,12.81,5.2,12.81,12.017s-5.233,12.085-12.81,12.085" transform="translate(0.336 0.039)" fill="#fff"/>
    <path id="Path_5" data-name="Path 5" d="M247.995,26.285c-5.51,0-9.434,4.407-9.434,9.917s3.994,9.986,9.5,9.986,9.435-4.408,9.435-9.917-4-9.986-9.5-9.986m0,22.416a12.107,12.107,0,0,1-12.259-12.43,12.294,12.294,0,1,1,24.586-.069,12.22,12.22,0,0,1-12.328,12.5" transform="translate(0.379 0.038)" fill="#fff"/>
    <path id="Path_6" data-name="Path 6" d="M278.81,41.675h-.137L269.891,28.8V48.287H267.24v-24.1h2.754l8.781,13.154,8.781-13.154h2.754v24.1h-2.72V28.763Z" transform="translate(0.43 0.039)" fill="#fff"/>
    <path id="Path_7" data-name="Path 7" d="M334.13,26.7h-14.6V35.3h13.05v2.479h-13.05v10.5h-2.72v-24.1h17.32Z" transform="translate(0.509 0.039)" fill="#fff"/>
    <path id="Path_8" data-name="Path 8" d="M351.771,26.285c-5.51,0-9.435,4.408-9.435,9.917s3.994,9.986,9.5,9.986,9.434-4.408,9.434-9.917-3.994-9.986-9.5-9.986m0,22.416a12.107,12.107,0,0,1-12.259-12.43A12.294,12.294,0,1,1,364.1,36.2a12.22,12.22,0,0,1-12.328,12.5" transform="translate(0.546 0.038)" fill="#fff"/>
    <path id="Path_9" data-name="Path 9" d="M380.668,26.7h-7.437v9.78h7.4c3.615,0,6.2-1.86,6.2-4.993,0-2.995-2.273-4.787-6.164-4.787m6.439,21.59-6.99-9.365h-6.886v9.365h-2.72v-24.1h10.365c5.3,0,8.711,2.858,8.711,7.2,0,4.027-2.754,6.37-6.543,7.058l7.4,9.848Z" transform="translate(0.596 0.039)" fill="#fff"/>
    <path id="Path_10" data-name="Path 10" d="M414.511,26.662h-14.7v8.229h13.154v2.48H399.807v8.437h14.876v2.478h-17.6v-24.1h17.424Z" transform="translate(0.638 0.039)" fill="#fff"/>
    <path id="Path_11" data-name="Path 11" d="M430.487,34.927c5.372,1.171,7.852,3.133,7.852,6.853,0,4.166-3.445,6.851-8.23,6.851a14.106,14.106,0,0,1-9.848-3.855l1.687-2a11.481,11.481,0,0,0,8.264,3.409c3.237,0,5.373-1.688,5.373-4.132,0-2.273-1.206-3.547-6.267-4.614-5.544-1.2-8.092-3-8.092-6.989,0-3.858,3.34-6.612,7.92-6.612a12.573,12.573,0,0,1,8.471,2.961l-1.585,2.1a10.584,10.584,0,0,0-6.955-2.616c-3.134,0-5.131,1.721-5.131,3.925,0,2.307,1.24,3.58,6.542,4.717" transform="translate(0.676 0.038)" fill="#fff"/>
    <path id="Path_12" data-name="Path 12" d="M454.694,48.286H451.94V26.7h-8.092V24.184h18.938V26.7h-8.092Z" transform="translate(0.714 0.039)" fill="#fff"/>
    <path id="Path_13" data-name="Path 13" d="M74.088,19.075l-10.7,29.237h2.546l9.423-25.745Z" transform="translate(0.102 0.03)" fill="#063"/>
    <path id="Path_14" data-name="Path 14" d="M63.968,36.423l-4.282,11.7h2.7l2.929-8Z" transform="translate(0.096 0.058)" fill="#008d36"/>
    <path id="Path_15" data-name="Path 15" d="M75.884,24.023,67,48.3h2.546L77.15,27.513Z" transform="translate(0.108 0.038)" fill="#063"/>
    <path id="Path_16" data-name="Path 16" d="M79.476,33.922l-6.6,18.041h2.546l5.324-14.549Z" transform="translate(0.117 0.054)" fill="#063"/>
    <path id="Path_17" data-name="Path 17" d="M77.681,28.972,70.608,48.3l-1.359,3.66,1.657.015h.9l7.138-19.505Z" transform="translate(0.111 0.046)" fill="#063"/>
    <path id="Path_18" data-name="Path 18" d="M58.362,20.952,46.219,54.138h2.7L59.707,24.654Z" transform="translate(0.074 0.033)" fill="#3aaa35"/>
    <path id="Path_19" data-name="Path 19" d="M50.762,0l-17.5,48.18h2.808L52.226,4.029Z" transform="translate(0.053 0)" fill="#dedc00"/>
    <path id="Path_20" data-name="Path 20" d="M60.233,26.109,49.977,54.13h2.7l8.9-24.319Z" transform="translate(0.08 0.042)" fill="#3aaa35"/>
    <path id="Path_21" data-name="Path 21" d="M57.837,19.5l-1.342-3.7L44.651,48.155h.011L42.47,54.146h2.7L55.96,24.663l-.007-.016Z" transform="translate(0.068 0.025)" fill="#95c11f"/>
    <path id="Path_22" data-name="Path 22" d="M54.62,10.642,40.887,48.164h2.7L55.966,14.341Z" transform="translate(0.066 0.017)" fill="#95c11f"/>
    <path id="Path_23" data-name="Path 23" d="M62.1,31.265,55.928,48.131h2.7l4.817-13.164Z" transform="translate(0.09 0.05)" fill="#008d36"/>
    <path id="Path_24" data-name="Path 24" d="M52.75,5.485,37.127,48.172h2.7L54.1,9.186Z" transform="translate(0.06 0.009)" fill="#95c11f"/>
    <path id="Path_25" data-name="Path 25" d="M81.266,38.87l-3.444,9.41h2.546l2.167-5.921Z" transform="translate(0.125 0.062)" fill="#063"/>
    <path id="Path_26" data-name="Path 26" d="M83.061,43.818l-1.629,4.454h3.246Z" transform="translate(0.131 0.07)" fill="#063"/>
    <path id="Path_27" data-name="Path 27" d="M22.692,28.682,15.544,48.216l-1.262,3.776,1.422-.02h1.152l7.175-19.6Z" transform="translate(0.023 0.046)" fill="#f9b233"/>
    <path id="Path_28" data-name="Path 28" d="M28.283,44.1l-1.5,4.091h2.983Z" transform="translate(0.043 0.071)" fill="#f9b233"/>
    <path id="Path_29" data-name="Path 29" d="M20.826,23.543,11.794,48.224H14.48l7.684-21Z" transform="translate(0.019 0.038)" fill="#e94e1b"/>
    <path id="Path_30" data-name="Path 30" d="M21.953,48.207h.026l3.916-10.7-1.338-3.684L17.916,51.963H20.6l1.348-3.685Z" transform="translate(0.029 0.054)" fill="#f9b233"/>
    <path id="Path_31" data-name="Path 31" d="M26.418,38.961,23.037,48.2h2.687l2.033-5.553Z" transform="translate(0.037 0.062)" fill="#f9b233"/>
    <path id="Path_32" data-name="Path 32" d="M5.319,33.63,0,48.273H2.831l3.918-10.7Z" transform="translate(0 0.054)" fill="#be1622"/>
    <path id="Path_33" data-name="Path 33" d="M7.275,39.023,3.794,48.532l-.573,1.529,2.923.023,2.584-7.059Z" transform="translate(0.005 0.063)" fill="#be1622"/>
    <path id="Path_34" data-name="Path 34" d="M18.887,18.195,7.868,48.3h2.755l-.024-.066h.133L20.3,22.088Z" transform="translate(0.013 0.029)" fill="#e6332a"/>
    <path id="Path_35" data-name="Path 35" d="M97.237,38.424l-3.6,9.842-.611,1.8.953.022h1.9l2.809-7.676Z" transform="translate(0.15 0.062)" fill="#063"/>
    <path id="Path_36" data-name="Path 36" d="M95.5,33.63,90.182,48.273h2.391L96.71,36.965Z" transform="translate(0.145 0.054)" fill="#063"/>
    <path id="Path_37" data-name="Path 37" d="M100.8,48.257l-1.595-4.39L97.6,48.257Z" transform="translate(0.157 0.07)" fill="#063"/>
  </g>
</svg>
